:FULLY-SPECIFIED
:FORCE-ALL-JOINTS-BE-3DOF
:DEGREES
130
root 9.08387 15.9278 -19.0687 6.18405 7.94605 6.18827
lfemur 20.3974 1.21904 -26.6408
ltibia 3.89618e-14 0 0
lfoot -13.6195 -2.08627 0
ltoes -7.61097 0 0
rfemur -42.3492 8.40632 5.65242
rtibia 27.5573 0 0
rfoot -21.0247 -11.4325 0
rtoes -20.9911 0 0
lowerback -8.39137 -4.18249 -7.27684
upperback -1.21035 -4.98116 1.92336
thorax 4.2289 -2.60507 5.47947
lowerneck -19.9128 -5.50136 -13.1824
upperneck 20.8509 -6.38108 11.0907
head 10.8124 -2.69037 5.25085
lclavicle 2.70692e-14 -1.45113e-14 0
lhumerus -31.828 -24.0172 98.3517
lradius 36.0432 0 0
lwrist 6.84085 0 0
lhand -12.6026 -24.4828 0
lfingers 7.12502 0 0
lthumb 13.4763 5.062 0
rclavicle 2.70692e-14 -1.45113e-14 0
rhumerus -47.5458 5.82094 -82.5443
rradius 32.225 0 0
rwrist -19.1413 0 0
rhand -28.3656 -28.2242 0
rfingers 7.12502 0 0
rthumb -1.73892 -58.1829 0
131
root 9.05773 15.913 -18.9027 6.26335 8.22083 6.20278
lfemur 20.9164 1.23266 -26.2975
ltibia 2.49732e-14 0 0
lfoot -13.2269 -2.42307 0
ltoes -7.42104 0 0
rfemur -42.1982 7.80276 6.09382
rtibia 27.9682 0 0
rfoot -19.7309 -10.9837 0
rtoes -21.8402 0 0
lowerback -8.34809 -4.20413 -7.2662
upperback -1.20714 -5.01297 1.89614
thorax 4.20959 -2.61982 5.44264
lowerneck -19.9782 -5.56002 -13.2016
upperneck 20.7321 -6.4499 11.1293
head 10.7934 -2.71605 5.25329
lclavicle 3.74039e-14 -1.59322e-14 0
lhumerus -32.2192 -23.6007 98.6005
lradius 34.9677 0 0
lwrist 5.84539 0 0
lhand -13.2779 -24.486 0
lfingers 7.12502 0 0
lthumb 12.8256 5.10447 0
rclavicle 3.74039e-14 -1.59322e-14 0
rhumerus -47.6571 5.55587 -82.4465
rradius 31.9433 0 0
rwrist -18.9927 0 0
rhand -27.332 -31.2141 0
rfingers 7.12502 0 0
rthumb -0.740643 -61.181 0
132
root 9.0316 15.8981 -18.7366 6.33264 8.46062 6.18235
lfemur 21.4315 1.28089 -25.9149
ltibia 1.31934e-14 0 0
lfoot -12.7362 -2.72468 0
ltoes -7.39932 0 0
rfemur -42.0836 7.19533 6.58978
rtibia 28.4702 0 0
rfoot -18.3434 -10.5423 0
rtoes -22.5597 0 0
lowerback -8.29815 -4.20877 -7.21083
upperback -1.2014 -5.02655 1.87331
thorax 4.18338 -2.62477 5.38819
lowerneck -20.035 -5.61896 -13.23
upperneck 20.602 -6.52194 11.1904
head 10.7706 -2.74164 5.26501
lclavicle 4.60004e-14 -1.65581e-14 0
lhumerus -32.573 -23.0609 98.7679
lradius 33.8777 0 0
lwrist 4.90158 0 0
lhand -13.671 -24.3465 0
lfingers 7.12502 0 0
lthumb 12.4467 5.26857 0
rclavicle 4.60004e-14 -1.65581e-14 0
rhumerus -47.7754 5.32096 -82.3769
rradius 31.6789 0 0
rwrist -18.8412 0 0
rhand -26.4539 -33.6816 0
rfingers 7.12502 0 0
rthumb 0.10739 -63.6556 0
133
root 9.00546 15.8832 -18.5706 6.3928 8.64565 6.11952
lfemur 21.9314 1.38423 -25.4912
ltibia 6.36111e-15 0 0
lfoot -12.1168 -2.97048 0
ltoes -7.68344 0 0
rfemur -42.04 6.59503 7.13481
rtibia 29.0787 0 0
rfoot -16.8983 -10.1335 0
rtoes -22.993 0 0
lowerback -8.2432 -4.19217 -7.10169
upperback -1.19302 -5.01692 1.857
thorax 4.15006 -2.61735 5.31392
lowerneck -20.0803 -5.67487 -13.2646
upperneck 20.4623 -6.5946 11.277
head 10.7437 -2.76552 5.28701
lclavicle 5.17461e-14 -1.59028e-14 0
lhumerus -32.8727 -22.3464 98.821
lradius 32.8069 0 0
lwrist 4.07631 0 0
lhand -13.5907 -23.998 0
lfingers 7.12502 0 0
lthumb 12.5237 5.60671 0
rclavicle 5.17461e-14 -1.59028e-14 0
rhumerus -47.8982 5.13757 -82.3518
rradius 31.4444 0 0
rwrist -18.7101 0 0
rhand -25.8973 -35.1427 0
rfingers 7.12502 0 0
rthumb 0.644928 -65.1215 0
134
root 8.97909 15.8804 -18.3978 6.44256 8.77484 6.00027
lfemur 22.4196 1.54426 -25.0087
ltibia 5.6764e-15 0 0
lfoot -11.3921 -3.17882 0
ltoes -8.35792 0 0
rfemur -42.0951 5.96496 7.76246
rtibia 29.8428 0 0
rfoot -15.2339 -9.77518 0
rtoes -23.1661 0 0
lowerback -8.1852 -4.1472 -6.91227
upperback -1.17896 -4.97688 1.84512
thorax 4.11042 -2.5936 5.20369
lowerneck -20.1219 -5.73323 -13.3109
upperneck 20.3172 -6.67683 11.4028
head 10.7178 -2.79035 5.32414
lclavicle 5.45665e-14 -1.35597e-14 0
lhumerus -33.1028 -21.4709 98.7742
lradius 31.7456 0 0
lwrist 3.4601 0 0
lhand -12.7779 -23.2665 0
lfingers 7.12502 0 0
lthumb 13.3062 6.27294 0
rclavicle 5.45665e-14 -1.35597e-14 0
rhumerus -48.0434 5.01577 -82.3964
rradius 31.2487 0 0
rwrist -18.6074 0 0
rhand -25.6642 -35.4963 0
rfingers 7.12502 0 0
rthumb 0.870087 -65.4777 0
135
root 8.95272 15.8776 -18.2249 6.48099 8.86378 5.82776
lfemur 22.9057 1.74489 -24.4654
ltibia 9.18826e-15 0 0
lfoot -10.5913 -3.36988 0
ltoes -9.32957 0 0
rfemur -42.2268 5.28893 8.48382
rtibia 30.7599 0 0
rfoot -13.2889 -9.45097 0
rtoes -23.2094 0 0
lowerback -8.12322 -4.07581 -6.64448
upperback -1.15869 -4.90897 1.83557
thorax 4.06481 -2.55479 5.05605
lowerneck -20.1639 -5.79778 -13.3726
upperneck 20.1663 -6.77247 11.5683
head 10.694 -2.81798 5.37656
lclavicle 5.53368e-14 -9.83618e-15 0
lhumerus -33.2734 -20.4783 98.6567
lradius 30.6651 0 0
lwrist 3.01757 0 0
lhand -11.3337 -22.1703 0
lfingers 7.12502 0 0
lthumb 14.6968 7.25615 0
rclavicle 5.53368e-14 -9.83618e-15 0
rhumerus -48.2164 4.94047 -82.5026
rradius 31.0835 0 0
rwrist -18.5161 0 0
rhand -25.6221 -35.1093 0
rfingers 7.12502 0 0
rthumb 0.910691 -65.0923 0
136
root 8.92636 15.8749 -18.0521 6.50941 8.91774 5.62031
lfemur 23.3879 1.98012 -23.8829
ltibia 1.49088e-14 0 0
lfoot -9.69228 -3.52573 0
ltoes -10.4694 0 0
rfemur -42.3949 4.60903 9.25973
rtibia 31.7681 0 0
rfoot -11.2502 -9.13425 0
rtoes -23.1232 0 0
lowerback -8.05457 -3.98742 -6.33195
upperback -1.13589 -4.82282 1.8304
thorax 4.0123 -2.50618 4.89079
lowerneck -20.1974 -5.86261 -13.4437
upperneck 20.0041 -6.87133 11.7564
head 10.6665 -2.84552 5.43826
lclavicle 5.43688e-14 -5.3175e-15 0
lhumerus -33.4065 -19.3623 98.4576
lradius 29.5702 0 0
lwrist 2.62671 0 0
lhand -9.60705 -20.9313 0
lfingers 7.12502 0 0
lthumb 16.3594 8.36099 0
rclavicle 5.43688e-14 -5.3175e-15 0
rhumerus -48.3964 4.89531 -82.6369
rradius 30.9355 0 0
rwrist -18.4218 0 0
rhand -25.7356 -34.1998 0
rfingers 7.12502 0 0
rthumb 0.801051 -64.1834 0
137
root 8.89999 15.8721 -17.8793 6.52916 8.94196 5.39625
lfemur 23.8643 2.24397 -23.2827
ltibia 2.08503e-14 0 0
lfoot -8.67318 -3.62847 0
ltoes -11.6485 0 0
rfemur -42.5591 3.96734 10.051
rtibia 32.8053 0 0
rfoot -9.3045 -8.79837 0
rtoes -22.9076 0 0
lowerback -7.97656 -3.89144 -6.00833
upperback -1.11425 -4.72809 1.83169
thorax 3.95198 -2.45302 4.72772
lowerneck -20.2135 -5.9218 -13.518
upperneck 19.8253 -6.9632 11.9499
head 10.6292 -2.87009 5.50322
lclavicle 5.19746e-14 -5.88998e-16 0
lhumerus -33.5241 -18.1167 98.1665
lradius 28.4655 0 0
lwrist 2.16548 0 0
lhand -7.94736 -19.7717 0
lfingers 7.12502 0 0
lthumb 17.9576 9.39212 0
rclavicle 5.19746e-14 -5.88998e-16 0
rhumerus -48.5626 4.86395 -82.7658
rradius 30.7915 0 0
rwrist -18.3103 0 0
rhand -25.9692 -32.9859 0
rfingers 7.12502 0 0
rthumb 0.575479 -62.9691 0
138
root 8.87362 15.8693 -17.7064 6.54159 8.94169 5.17388
lfemur 24.3331 2.53043 -22.6864
ltibia 2.50247e-14 0 0
lfoot -7.51205 -3.6602 0
ltoes -12.7379 0 0
rfemur -42.6793 3.40593 10.8185
rtibia 33.8095 0 0
rfoot -7.63871 -8.41671 0
rtoes -22.5629 0 0
lowerback -7.88652 -3.79728 -5.70724
upperback -1.09744 -4.6344 1.84151
thorax 3.88293 -2.40057 4.58662
lowerneck -20.2033 -5.96942 -13.5893
upperneck 19.6244 -7.03787 12.1316
head 10.5764 -2.88881 5.56542
lclavicle 4.8466e-14 3.76402e-15 0
lhumerus -33.6482 -16.7355 97.7726
lradius 27.3561 0 0
lwrist 1.51186 0 0
lhand -6.7038 -18.9134 0
lfingers 7.12502 0 0
lthumb 19.155 10.1542 0
rclavicle 4.8466e-14 3.76402e-15 0
rhumerus -48.6942 4.83003 -82.8558
rradius 30.6384 0 0
rwrist -18.1671 0 0
rhand -26.2872 -31.6857 0
rfingers 7.12502 0 0
rthumb 0.268285 -61.6676 0
139
root 8.84725 15.8665 -17.5336 6.54803 8.92219 4.97153
lfemur 24.7923 2.8335 -22.1156
ltibia 2.54444e-14 0 0
lfoot -6.18696 -3.60299 0
ltoes -13.6086 0 0
rfemur -42.7152 2.9669 11.5231
rtibia 34.7188 0 0
rfoot -6.4396 -7.96264 0
rtoes -22.0893 0 0
lowerback -7.78176 -3.71435 -5.46231
upperback -1.08916 -4.55139 1.86194
thorax 3.80422 -2.3541 4.48731
lowerneck -20.1579 -5.99956 -13.6516
upperneck 19.3959 -7.08514 12.2844
head 10.502 -2.89879 5.61884
lclavicle 4.4155e-14 7.15625e-15 0
lhumerus -33.8007 -15.2125 97.2654
lradius 26.2465 0 0
lwrist 0.54385 0 0
lhand -6.22562 -18.5785 0
lfingers 7.12502 0 0
lthumb 19.6155 10.4519 0
rclavicle 4.4155e-14 7.15625e-15 0
rhumerus -48.7702 4.77721 -82.8735
rradius 30.4631 0 0
rwrist -17.978 0 0
rhand -26.6543 -30.5173 0
rfingers 7.12502 0 0
rthumb -0.0862209 -60.497 0
140
root 8.81419 15.8751 -17.3632 6.53915 8.85271 4.80149
lfemur 25.394 3.16938 -21.5797
ltibia -0.253309 0 0
lfoot -4.54571 -3.43216 0
ltoes -14.3355 0 0
rfemur -42.6855 2.6781 12.1549
rtibia 35.5858 0 0
rfoot -5.75704 -7.40022 0
rtoes -21.3931 0 0
lowerback -7.65546 -3.63643 -5.29472
upperback -1.08858 -4.46984 1.89291
thorax 3.7135 -2.30915 4.443
lowerneck -20.0483 -6.00613 -13.7125
upperneck 19.1153 -7.09592 12.4093
head 10.391 -2.89722 5.66599
lclavicle 3.76167e-14 9.80487e-15 0
lhumerus -33.9651 -13.434 96.5938
lradius 25.0888 0 0
lwrist -0.880398 0 0
lhand -6.84133 -18.9816 0
lfingers 7.12502 0 0
lthumb 19.0227 10.0972 0
rclavicle 3.76167e-14 9.80487e-15 0
rhumerus -48.7906 4.70645 -82.8102
rradius 30.2566 0 0
rwrist -17.7462 0 0
rhand -27.1836 -29.3187 0
rfingers 7.12502 0 0
rthumb -0.597453 -59.2942 0
141
root 8.78112 15.8836 -17.1928 6.512 8.72289 4.65156
lfemur 26.1699 3.54611 -21.0634
ltibia -0.810589 0 0
lfoot -2.57543 -3.15708 0
ltoes -15.0368 0 0
rfemur -42.6259 2.51143 12.7435
rtibia 36.4705 0 0
rfoot -5.45156 -6.74357 0
rtoes -20.4556 0 0
lowerback -7.50841 -3.55474 -5.18179
upperback -1.09261 -4.38018 1.93277
thorax 3.61104 -2.26062 4.4405
lowerneck -19.8757 -5.99265 -13.7784
upperneck 18.7819 -7.07657 12.5203
head 10.2451 -2.88584 5.71218
lclavicle 2.83167e-14 1.22216e-14 0
lhumerus -34.1206 -11.3823 95.7562
lradius 23.8695 0 0
lwrist -2.69163 0 0
lhand -8.33727 -19.988 0
lfingers 7.12502 0 0
lthumb 17.5824 9.20889 0
rclavicle 2.83167e-14 1.22216e-14 0
rhumerus -48.7721 4.63103 -82.6912
rradius 30.0278 0 0
rwrist -17.4837 0 0
rhand -27.9264 -27.8832 0
rfingers 7.12502 0 0
rthumb -1.31474 -57.8521 0
142
root 8.74806 15.8921 -17.0224 6.47753 8.56858 4.50333
lfemur 26.9383 3.94545 -20.551
ltibia -1.36787 0 0
lfoot -0.463111 -2.81099 0
ltoes -15.6483 0 0
rfemur -42.5224 2.42505 13.3082
rtibia 37.3223 0 0
rfoot -5.42595 -6.04114 0
rtoes -19.3888 0 0
lowerback -7.34932 -3.47488 -5.09139
upperback -1.10147 -4.29157 1.98115
thorax 3.49985 -2.21281 4.45998
lowerneck -19.6769 -5.96761 -13.8413
upperneck 18.4264 -7.04001 12.6195
head 10.0837 -2.86861 5.75561
lclavicle 1.79022e-14 1.42628e-14 0
lhumerus -34.2825 -9.1949 94.8158
lradius 22.6453 0 0
lwrist -4.69524 0 0
lhand -10.2494 -21.2958 0
lfingers 7.12502 0 0
lthumb 15.7414 8.0515 0
rclavicle 1.79022e-14 1.42628e-14 0
rhumerus -48.7189 4.55306 -82.5332
rradius 29.7899 0 0
rwrist -17.1896 0 0
rhand -28.7536 -26.3613 0
rfingers 7.12502 0 0
rthumb -2.11365 -56.3227 0
